Coordinates
version=1
nRows=16
nColumns=40
inDegrees=yes

Units are S.I. units (second, meters, Newtons, ...)
Angles are in degrees.

endheader
time	pelvis_tilt	pelvis_list	pelvis_rotation	pelvis_tx	pelvis_ty	pelvis_tz	hip_flexion_r	hip_adduction_r	hip_rotation_r	knee_angle_r	knee_angle_r_beta	ankle_angle_r	subtalar_angle_r	mtp_angle_r	hip_flexion_l	hip_adduction_l	hip_rotation_l	knee_angle_l	knee_angle_l_beta	ankle_angle_l	subtalar_angle_l	mtp_angle_l	lumbar_extension	lumbar_bending	lumbar_rotation	arm_flex_r	arm_add_r	arm_rot_r	elbow_flex_r	pro_sup_r	wrist_flex_r	wrist_dev_r	arm_flex_l	arm_add_l	arm_rot_l	elbow_flex_l	pro_sup_l	wrist_flex_l	wrist_dev_l
      7.57500000	     -3.95142380	     -2.81707755	     -4.42796166	      0.72405530	      0.92492650	      0.46153082	     25.97900857	     -0.16077560	    -11.22986310	     13.06730151	     13.06730151	      2.66497537	      6.59741038	      6.49970915	      1.77618524	     -2.89035682	     -8.20285078	     13.95554565	     13.95554565	     17.29235244	     -7.40817606	     -4.75234824	     -9.90265846	      5.59151408	      0.85092377	    -12.26190037	    -12.08297695	     -9.02796463	     25.88128994	     46.95455354	      0.00000000	      0.00000000	     12.53797757	    -15.00796248	     -7.49979166	     80.26086624	     47.25204490	      0.00000000	      0.00000000
      7.58921429	     -3.95655920	     -2.83213471	     -4.41763303	      0.72514713	      0.92378156	      0.46365213	     25.98657263	     -0.18771386	    -11.16597376	     14.32428529	     14.32428529	      2.76180501	      6.17679065	      5.45730918	      0.95866154	     -2.97538644	     -8.28473618	     13.54116237	     13.54116237	     17.72239398	     -7.10587507	     -4.74642117	     -9.75637943	      5.71331938	      0.79665349	    -11.52934794	    -12.10422373	     -9.19755386	     26.37212932	     46.94763450	      0.00000000	      0.00000000	     12.82622602	    -15.04712744	     -7.57214982	     80.99203714	     47.28167712	      0.00000000	      0.00000000
      7.60342857	     -3.94583681	     -2.83021224	     -4.36885183	      0.72654540	      0.92251782	      0.46594668	     25.79067416	     -0.14737938	    -10.76232149	     15.36728566	     15.36728566	      1.45544635	      4.87396520	      0.50100185	      0.20675411	     -3.08643230	     -8.45241306	     13.34770014	     13.34770014	     18.56597684	     -6.50614915	     -3.91405726	     -9.60552142	      5.79273447	      0.35067666	    -10.71128453	    -12.03640640	    -10.17028410	     27.53370896	     46.93222087	      0.00000000	      0.00000000	     12.47845884	    -15.16915206	     -8.13519424	     82.67604050	     47.41837794	      0.00000000	      0.00000000
      7.61764286	     -3.85782943	     -2.89626139	     -4.23960110	      0.72804874	      0.92141095	      0.46815128	     25.71049515	     -0.15014044	    -10.56378734	     17.05604193	     17.05604193	      1.79693981	      3.90542329	     -0.18935308	     -0.60528536	     -3.25070015	     -8.37988460	     13.16400645	     13.16400645	     19.03341538	     -6.35898716	     -3.82935675	     -9.51093989	      5.97503287	      0.35321358	     -9.87611638	    -12.12164706	    -10.24192251	     27.90839883	     46.92383004	      0.00000000	      0.00000000	     12.83053778	    -15.08095024	     -8.03735183	     82.78693003	     47.42356792	      0.00000000	      0.00000000
      7.63185714	     -3.84011587	     -2.92529036	     -4.10301029	      0.72962798	      0.92023084	      0.47050421	     25.62236721	     -0.03567664	     -9.83881460	     18.50739930	     18.50739930	      1.60252158	      2.02331542	     -2.16434559	     -1.17777769	     -3.43549296	     -8.41623131	     13.33297799	     13.33297799	     20.06537035	     -5.86107711	     -2.40848738	     -9.34471190	      6.14193277	      0.23535523	     -9.16372498	    -12.10225809	    -10.91725575	     29.09749345	     46.88669720	      0.00000000	      0.00000000	     12.83370145	    -15.07648694	     -7.90195237	     83.39688864	     47.47881102	      0.00000000	      0.00000000
      7.64607143	     -3.70150707	     -3.00659245	     -3.91013711	      0.73130428	      0.91933785	      0.47280080	     25.41116782	      0.03065965	     -9.61381043	     20.00889703	     20.00889703	      2.11491246	      1.11420053	     -2.66558520	     -1.82427871	     -3.67043755	     -8.26843053	     13.54924251	     13.54924251	     20.46609223	     -5.87535074	     -2.29771569	     -9.30686139	      6.37114875	      0.17547875	     -8.23970699	    -12.22256130	    -11.01302312	     29.59031393	     46.87534956	      0.00000000	      0.00000000	     12.99919797	    -14.93491756	     -7.76312945	     83.38138810	     47.47704355	      0.00000000	      0.00000000
      7.66028571	     -3.64047270	     -3.05709273	     -3.70377085	      0.73287957	      0.91851586	      0.47520150	     25.27999934	      0.16769447	     -9.13734566	     21.36117838	     21.36117838	      2.65100699	     -0.20086914	     -3.05194106	     -2.18212091	     -3.92117772	     -8.10270606	     14.11844307	     14.11844307	     20.88424106	     -6.00654576	     -1.98023636	     -9.18806231	      6.56057632	      0.03936369	     -7.25721330	    -12.30658021	    -11.19308653	     30.34682887	     46.85665578	      0.00000000	      0.00000000	     12.99769436	    -14.83727888	     -7.58411308	     83.37849563	     47.47422923	      0.00000000	      0.00000000
      7.67450000	     -3.62861280	     -3.19006614	     -3.45601125	      0.73432818	      0.91796787	      0.47770216	     25.08161186	      0.47171159	     -8.59886612	     22.35122811	     22.35122811	      3.14482891	     -1.66812685	     -3.21026500	     -2.20624881	     -4.33571994	     -7.88684599	     15.20044791	     15.20044791	     21.37880408	     -6.20242610	     -1.34560270	     -9.04488659	      6.85253817	     -0.15011458	     -6.28824457	    -12.39980219	    -11.52447749	     31.48001643	     46.82551036	      0.00000000	      0.00000000	     12.80966857	    -14.67588368	     -7.32949815	     83.36625424	     47.47191000	      0.00000000	      0.00000000
      7.68871429	     -3.37050919	     -3.29727928	     -3.24718099	      0.73599404	      0.91821147	      0.48020884	     24.45741656	      0.67267948	     -8.49309721	     23.00789406	     23.00789406	      3.77884395	     -2.07572423	     -3.47221243	     -2.58907951	     -4.68700627	     -7.70136867	     16.08882684	     16.08882684	     21.39025108	     -6.48992612	     -1.29988903	     -9.19223366	      7.09324616	     -0.08361974	     -5.12739047	    -12.57599481	    -11.58948131	     32.05943546	     46.81295820	      0.00000000	      0.00000000	     12.69443470	    -14.18478036	     -7.03069777	     83.24378290	     47.45212646	      0.00000000	      0.00000000
      7.70292857	     -3.39614164	     -3.47166896	     -2.93334710	      0.73707054	      0.91817490	      0.48291997	     24.20638588	      1.10077776	     -7.97474199	     23.61191862	     23.61191862	      4.44896668	     -3.56820971	     -3.04283604	     -1.87292794	     -5.31595329	     -7.46811411	     18.41753944	     18.41753944	     21.93096264	     -6.76694556	     -0.43912119	     -9.08069080	      7.40322748	     -0.18798585	     -4.49280121	    -12.64633647	    -12.26060817	     34.26590498	     46.72884012	      0.00000000	      0.00000000	     12.53855562	    -14.16355037	     -6.63693419	     82.79582317	     47.45959295	      0.00000000	      0.00000000
      7.71714286	     -3.31260459	     -3.59809928	     -2.62968492	      0.73817327	      0.91868607	      0.48556123	     23.68174416	      1.34263810	     -8.04014053	     23.90198085	     23.90198085	      5.07409010	     -3.88141834	     -3.15964643	     -1.26921526	     -5.83863408	     -7.02147163	     20.66262525	     20.66262525	     21.63287892	     -7.56043590	     -0.75010680	     -9.06424014	      7.61865675	     -0.28618759	     -3.24540116	    -12.81671124	    -12.35642547	     35.04664917	     46.70312490	      0.00000000	      0.00000000	     12.30454335	    -13.90613440	     -6.25947083	     82.23587537	     47.43316703	      0.00000000	      0.00000000
      7.73135714	     -3.13528324	     -3.71616260	     -2.32660822	      0.73917311	      0.91960083	      0.48830764	     22.98150231	      1.59896966	     -8.10836916	     24.01525882	     24.01525882	      5.65526073	     -4.13951871	     -3.22185303	     -0.55781663	     -6.38164871	     -6.56920008	     23.25356838	     23.25356838	     21.08077847	     -8.41341375	     -1.22352352	     -9.16997505	      7.80448109	     -0.33558739	     -1.91020686	    -12.99089967	    -12.41064752	     35.87948171	     46.67614308	      0.00000000	      0.00000000	     12.06022867	    -13.64559068	     -5.90056155	     81.64198546	     47.40430770	      0.00000000	      0.00000000
      7.74557143	     -3.14430067	     -3.81650262	     -1.99909547	      0.73987771	      0.92043632	      0.49103222	     22.39741784	      1.83760653	     -8.26768723	     23.91191751	     23.91191751	      6.17300817	     -4.29903449	     -3.19115853	      0.69005971	     -6.96065015	     -6.06411396	     26.37178348	     26.37178348	     20.20801896	     -9.37055195	     -2.03419372	     -9.04438992	      8.00994751	     -0.47461094	     -0.59860175	    -13.17144772	    -12.43209276	     36.92725276	     46.63615409	      0.00000000	      0.00000000	     11.64964926	    -13.38599995	     -5.46159360	     80.74000717	     47.36571830	      0.00000000	      0.00000000
      7.75978571	     -3.09279023	     -3.89911430	     -1.70299254	      0.74043555	      0.92144596	      0.49393589	     21.76327878	      2.05432109	     -8.49200146	     23.84228126	     23.84228126	      6.81920262	     -4.19866560	     -2.77623955	      1.93168634	     -7.51939515	     -5.54960147	     29.45748070	     29.45748070	     18.20968170	    -10.78717109	     -4.83088056	     -9.01879432	      8.06041835	     -0.20771178	      0.05426750	    -13.56014225	    -12.04922080	     39.37032633	     46.47918590	      0.00000000	      0.00000000	     11.75369731	    -13.02501757	     -4.60304674	     78.80690292	     47.31798812	      0.00000000	      0.00000000
      7.77400000	     -3.00509170	     -4.02567654	     -1.37070969	      0.74083919	      0.92261549	      0.49677406	     20.92904454	      2.29235447	     -8.92179596	     23.46227627	     23.46227627	      7.22409856	     -3.86701394	     -2.81701388	      3.42956664	     -8.14133055	     -4.98340830	     33.07630460	     33.07630460	     16.89488806	    -11.80999554	     -5.42494077	     -9.05364011	      8.15301105	     -0.19263532	      1.45388208	    -13.84004910	    -12.02369711	     40.21164893	     46.44796832	      0.00000000	      0.00000000	     11.27188221	    -12.71085613	     -4.18884018	     78.08803757	     47.28174837	      0.00000000	      0.00000000
      7.78821429	     -2.97615457	     -4.03449360	     -1.03930853	      0.74104161	      0.92364472	      0.49949049	     20.22300527	      2.33835031	     -9.52698427	     23.21041732	     23.21041732	      7.70710800	     -3.15839967	     -2.81561442	      5.08091312	     -8.58688538	     -4.36334882	     36.68884367	     36.68884367	     15.00491034	    -13.17438439	     -6.63308937	     -8.97077441	      8.13786081	     -0.23431448	      2.63915702	    -14.21641476	    -11.53701994	     41.89648926	     46.34184636	      0.00000000	      0.00000000	     10.99936373	    -12.48021214	     -3.63437409	     76.15736953	     47.23277279	      0.00000000	      0.00000000
